<?xml version="1.0" encoding="UTF-8" standalone="no"?>
<!DOCTYPE svg PUBLIC "-//W3C//DTD SVG 1.1//EN" "http://www.w3.org/Graphics/SVG/1.1/DTD/svg11.dtd">
<svg version="1.1" xmlns="http://www.w3.org/2000/svg" xmlns:xlink="http://www.w3.org/1999/xlink" preserveAspectRatio="xMidYMid meet" viewBox="0 0 1024 500" width="1024" height="500"><defs><path d="M24 0C24 0 24 0 24 0C24 14.4 24 22.4 24 24C24 24 24 24 24 24C9.6 24 1.6 24 0 24C0 24 0 24 0 24C0 9.6 0 1.6 0 0C0 0 0 0 0 0C14.4 0 22.4 0 24 0Z" id="a316bc5N0Z"></path><path d="M0 0L1024 0L1024 500L0 500L0 0Z" id="b1A6Qgxba1"></path><path d="M191.16 148.3C191.16 148.3 191.16 148.3 191.16 148.3C191.16 162.7 191.16 170.7 191.16 172.3C191.16 172.3 191.16 172.3 191.16 172.3C176.76 172.3 168.76 172.3 167.16 172.3C167.16 172.3 167.16 172.3 167.16 172.3C167.16 157.9 167.16 149.9 167.16 148.3C167.16 148.3 167.16 148.3 167.16 148.3C181.56 148.3 189.56 148.3 191.16 148.3Z" id="bcD0NUrC"></path><path d="M474.5 167.5L474.5 212.5L429.5 212.5L429.5 167.5L474.5 167.5M407 145L407 235L497 235L497 145L497 145L407 145ZM474.5 287.5L474.5 332.5L429.5 332.5L429.5 287.5L474.5 287.5M407 265L407 355L497 355L497 265L497 265L407 265ZM594.5 167.5L594.5 212.5L549.5 212.5L549.5 167.5L594.5 167.5M527 145L527 235L617 235L617 145L617 145L527 145ZM549.5 265L549.5 287.5L527 287.5L527 265L549.5 265ZM572 287.5L572 310L549.5 310L549.5 287.5L572 287.5ZM594.5 265L594.5 287.5L572 287.5L572 265L594.5 265ZM549.5 310L549.5 332.5L527 332.5L527 310L549.5 310ZM572 332.5L572 355L549.5 355L549.5 332.5L572 332.5ZM594.5 310L594.5 332.5L572 332.5L572 310L594.5 310ZM617 287.5L617 310L594.5 310L594.5 287.5L617 287.5ZM617 332.5L617 355L594.5 355L594.5 332.5L617 332.5ZM632 175L632 130L587 130L587 100L662 100L662 175L632 175ZM662 325L632 325L632 370L587 370L587 400L662 400L662 325ZM437 400L437 370L392 370L392 325L362 325L362 400L437 400ZM362 175L392 175L392 130L437 130L437 100L362 100L362 175Z" id="b12o8T4PHA"></path></defs><g><g><g><use xlink:href="#a316bc5N0Z" opacity="1" fill="#000000" fill-opacity="0"></use><g><use xlink:href="#a316bc5N0Z" opacity="1" fill-opacity="0" stroke="#000000" stroke-width="1" stroke-opacity="0"></use></g></g><g><use xlink:href="#b1A6Qgxba1" opacity="1" fill="#00b1ff" fill-opacity="1"></use></g><g><use xlink:href="#bcD0NUrC" opacity="1" fill="#000000" fill-opacity="0"></use><g><use xlink:href="#bcD0NUrC" opacity="1" fill-opacity="0" stroke="#000000" stroke-width="1" stroke-opacity="0"></use></g></g><g><use xlink:href="#b12o8T4PHA" opacity="1" fill="#ffffff" fill-opacity="1"></use><g><use xlink:href="#b12o8T4PHA" opacity="1" fill-opacity="0" stroke="#000000" stroke-width="1" stroke-opacity="0"></use></g></g></g></g></svg>